<svg width="1440" height="902" viewBox="0 0 1440 902" fill="none" xmlns="http://www.w3.org/2000/svg">
<path fill-rule="evenodd" clip-rule="evenodd" d="M1160.05 -571L1159.79 -302.796L967.085 -302.981L966.585 -302.982L966.327 -35.633H965.848L965.983 -35.447L772.386 -35.633L966.07 232.191L965.814 498.503H965.333L965.468 498.69L773.48 498.504L580.694 231.923L580.544 231.716L387.456 231.53L387.712 -34.632L580.416 -34.446L580.916 -34.445L581.174 -302.607L387.213 -302.795H386.713L386.456 -35.446L193.994 -35.632L194.251 -302.107V-302.269L96.649 -437.325L0.0480042 -571L-0.209991 -302.796L-192.915 -302.981L-193.414 -302.982L-193.673 -35.633H-194.152L-194.017 -35.447L-387.614 -35.633L-193.93 232.191L-194.186 498.503H-194.667L-194.532 498.69L-388 498.503L-194.221 766.459L-194.071 766.666L0.626007 766.854L0.490997 766.667L192.723 766.853L386.051 767.039L386.94 768.268L483.541 901.944L483.8 634.306L579.37 766.459L579.519 766.666L774.216 766.854L581.011 499.691L772.993 499.877L965.779 766.459L965.929 766.666L1160.63 766.854L1160.49 766.667L1352.72 766.853L1546.05 767.039L1546.94 768.268L1643.54 901.944L1643.8 634.306L1739.37 766.459L1739.52 766.666L1934.22 766.854L1741.01 499.691L1934.47 499.878L1740.69 231.923L1740.54 231.716L1547.46 231.53L1547.71 -34.632L1740.42 -34.446L1740.92 -34.445L1741.17 -302.607L1547.21 -302.795H1546.71L1546.46 -35.446L1353.99 -35.632L1354.25 -302.107V-302.269L1256.65 -437.325L1160.05 -571ZM1160.79 -302.813L1161.04 -567.914L1256.65 -435.621L1256.42 -198.636L1256.39 -170.519L1161.05 -302.457V-302.795H1160.8L1160.79 -302.813ZM0.789001 -302.813L1.04501 -567.914L96.648 -435.621L96.42 -198.636L96.393 -170.519L1.047 -302.457V-302.795H0.802002L0.789001 -302.813ZM1257.65 -168.425V-168.62V-168.781L1257.39 -169.137L1257.62 -407.036L1257.65 -434.239L1353.25 -301.947L1352.99 -36.489L1257.65 -168.425ZM97.6481 -168.425V-168.62V-168.781L97.3911 -169.137L97.6211 -407.036L97.6471 -434.239L193.251 -301.947L192.995 -36.489L97.6481 -168.425ZM967.328 -35.82L967.584 -301.98L1160.03 -301.796L1160.05 -301.778L1159.79 -35.632L967.328 -35.82ZM-192.672 -35.82L-192.415 -301.98L0.0331421 -301.796L0.0461426 -301.778L-0.209869 -35.632L-192.672 -35.82ZM1547.46 -35.631L1547.71 -301.795L1740.17 -301.608L1739.92 -35.447L1547.46 -35.631ZM387.456 -35.631L387.712 -301.795L580.173 -301.608L579.917 -35.447L387.456 -35.631ZM1160.79 -35.2939L1161.02 -275.438L1161.04 -300.395L1256.65 -168.102L1256.39 96.997L1160.79 -35.2939ZM0.789001 -35.2939L1.021 -275.438L1.04501 -300.395L96.648 -168.102L96.393 96.997L0.789001 -35.2939ZM1257.39 98.473L1257.65 -166.721L1353.25 -34.429L1352.99 230.673L1257.39 98.473ZM97.3911 98.473L97.6471 -166.721L193.25 -34.429L192.995 230.673L97.3911 98.473ZM1484.75 231.656L1353.99 231.53L1354.25 -34.632L1546.71 -34.446L1546.46 231.529L1545.85 231.528L1545.98 231.714L1484.75 231.656ZM324.748 231.656L193.994 231.53L194.251 -34.632L386.712 -34.446L386.457 231.529L385.847 231.528L385.981 231.714L324.748 231.656ZM1228.48 231.596L1160.29 231.529L967.807 -34.632L1160.03 -34.446L1352.51 231.714L1228.48 231.596ZM966.826 231.529L774.345 -34.632L966.706 -34.446L1159.19 231.714L966.826 231.529ZM68.4821 231.596L0.288147 231.529L-192.193 -34.632L0.0331421 -34.446L192.514 231.714L68.4821 231.596ZM-193.174 231.529L-385.655 -34.632L-193.294 -34.446L-0.812988 231.714L-193.174 231.529ZM1740.29 498.69L1547.81 232.531L1740.03 232.716L1932.51 498.876L1740.29 498.69ZM1546.82 498.504L1354.47 232.531L1478.51 232.65L1546.7 232.716L1739.05 498.69L1546.82 498.504ZM1291.03 498.817L1160.28 498.691L1160.53 232.531L1222.24 232.589L1352.99 232.715L1352.74 498.876L1291.03 498.817ZM966.814 498.504L967.07 232.531L1159.53 232.715L1159.27 498.69L966.814 498.504ZM580.288 498.69L387.807 232.531L580.033 232.716L772.244 498.503H772L772.269 498.876L580.288 498.69ZM386.819 498.504L194.473 232.531L318.506 232.65L386.7 232.716L579.046 498.69L386.819 498.504ZM131.029 498.817L0.275879 498.691L0.530884 232.531L62.2399 232.589L192.993 232.715L192.737 498.876L131.029 498.817ZM-193.187 498.504L-192.93 232.531L-0.468994 232.715L-0.724976 498.69L-193.187 498.504ZM1353.74 499.215L1353.97 258.928L1353.99 233.76L1449.6 366.051L1449.37 603.177L1449.34 631.415L1353.74 499.215ZM193.737 499.215L193.968 258.928L193.992 233.76L289.596 366.051L289.367 603.177L289.34 631.415L193.737 499.215ZM1450.34 632.796L1450.57 395.765L1450.59 367.434L1546.2 499.725L1545.97 736.852L1545.94 764.997L1450.34 632.796ZM290.338 632.796L290.567 395.765L290.595 367.434L386.198 499.725L385.97 736.852L385.943 764.997L290.338 632.796ZM774.204 499.505L965.813 499.69L966.186 499.691L1158.67 765.852L966.441 765.667L774.229 499.878H774.473L774.204 499.505ZM-193.559 765.667L-386.04 499.505L-194.187 499.69L-193.814 499.691L-1.33401 765.852L-193.559 765.667ZM1740.03 765.667L1547.68 499.691L1739.91 499.877L1932.26 765.852L1740.03 765.667ZM580.03 765.667L387.684 499.691L579.911 499.877L772.257 765.852L580.03 765.667ZM1353.24 765.853L1160.75 499.692L1284.79 499.811L1352.98 499.877L1354.03 501.321L1450.34 634.596V634.595L1545.33 766.038L1353.24 765.853ZM1159.77 765.667L967.427 499.692L1159.65 499.877L1352 765.852L1159.77 765.667ZM193.236 765.853L0.753998 499.692L124.786 499.811L192.981 499.877L194.025 501.321L290.337 634.596V634.595L385.327 766.038L193.236 765.853ZM-0.22699 765.667L-192.573 499.692L-0.346008 499.877L192 765.852L-0.22699 765.667ZM1547.29 767.04H1547.42L1546.94 766.377L1547.17 530.703L1547.2 501.109L1642.8 633.4L1642.54 898.857L1547.29 767.04ZM387.285 767.04H387.42L386.942 766.377L387.168 530.703L387.197 501.109L482.801 633.4L482.545 898.857L387.285 767.04Z" fill="url(#paint0_linear_94_39)"/>
<defs>
<linearGradient id="paint0_linear_94_39" x1="1427.5" y1="-10.5001" x2="12.0001" y2="761.5" gradientUnits="userSpaceOnUse">
<stop stop-color="#23334F" stop-opacity="0.5"/>
<stop offset="0.813571" stop-color="#161634"/>
<stop offset="1" stop-color="#040421"/>
</linearGradient>
</defs>
</svg>
